<mxfile host="app.diagrams.net" agent="Mozilla/5.0 (Macintosh; Intel Mac OS X 10_15_7) AppleWebKit/537.36 (KHTML, like Gecko) Chrome/130.0.0.0 Safari/537.36" version="24.8.4">
  <diagram id="C5RBs43oDa-KdzZeNtuy" name="Page-1">
    <mxGraphModel dx="3549" dy="2340" grid="1" gridSize="11" guides="1" tooltips="1" connect="1" arrows="1" fold="1" page="1" pageScale="1" pageWidth="3000" pageHeight="3000" math="0" shadow="0">
      <root>
        <mxCell id="WIyWlLk6GJQsqaUBKTNV-0" />
        <mxCell id="WIyWlLk6GJQsqaUBKTNV-1" parent="WIyWlLk6GJQsqaUBKTNV-0" />
        <mxCell id="Td7zW-o2DTwXKr2sYSDe-17" style="edgeStyle=orthogonalEdgeStyle;rounded=0;orthogonalLoop=1;jettySize=auto;html=1;exitX=0.499;exitY=0.851;exitDx=0;exitDy=0;exitPerimeter=0;endArrow=none;endFill=0;" parent="WIyWlLk6GJQsqaUBKTNV-1" source="Td7zW-o2DTwXKr2sYSDe-0" edge="1">
          <mxGeometry relative="1" as="geometry">
            <mxPoint x="1254.03" y="275.4" as="sourcePoint" />
            <mxPoint x="1253.7999999999997" y="429" as="targetPoint" />
            <Array as="points">
              <mxPoint x="1254" y="308" />
              <mxPoint x="1254" y="308" />
            </Array>
          </mxGeometry>
        </mxCell>
        <mxCell id="Td7zW-o2DTwXKr2sYSDe-0" value="&lt;font style=&quot;font-size: 16px;&quot;&gt;Dockerfile.dev&lt;/font&gt;" style="shape=document;whiteSpace=wrap;html=1;boundedLbl=1;sketch=1;curveFitting=1;jiggle=2;" parent="WIyWlLk6GJQsqaUBKTNV-1" vertex="1">
          <mxGeometry x="1166" y="212.75" width="176" height="106.25" as="geometry" />
        </mxCell>
        <mxCell id="Td7zW-o2DTwXKr2sYSDe-1" value="&lt;font style=&quot;font-size: 16px;&quot;&gt;skaffold.yaml&lt;/font&gt;" style="shape=document;whiteSpace=wrap;html=1;boundedLbl=1;sketch=1;curveFitting=1;jiggle=2;" parent="WIyWlLk6GJQsqaUBKTNV-1" vertex="1">
          <mxGeometry x="1406.75" y="212.75" width="176" height="106.25" as="geometry" />
        </mxCell>
        <mxCell id="Td7zW-o2DTwXKr2sYSDe-88" style="edgeStyle=orthogonalEdgeStyle;rounded=0;orthogonalLoop=1;jettySize=auto;html=1;exitX=0.484;exitY=0.86;exitDx=0;exitDy=0;exitPerimeter=0;" parent="WIyWlLk6GJQsqaUBKTNV-1" source="Td7zW-o2DTwXKr2sYSDe-2" edge="1">
          <mxGeometry relative="1" as="geometry">
            <mxPoint x="1663" y="737" as="targetPoint" />
            <Array as="points">
              <mxPoint x="1738" y="295" />
              <mxPoint x="1738" y="737" />
            </Array>
          </mxGeometry>
        </mxCell>
        <mxCell id="Td7zW-o2DTwXKr2sYSDe-2" value="&lt;font style=&quot;font-size: 16px;&quot;&gt;k8s folder&lt;/font&gt;" style="shape=document;whiteSpace=wrap;html=1;boundedLbl=1;sketch=1;curveFitting=1;jiggle=2;" parent="WIyWlLk6GJQsqaUBKTNV-1" vertex="1">
          <mxGeometry x="1672" y="212.75" width="144" height="95.25" as="geometry" />
        </mxCell>
        <mxCell id="Td7zW-o2DTwXKr2sYSDe-4" value="&lt;font style=&quot;font-size: 36px;&quot;&gt;Development environment: k3s cluster&lt;/font&gt;" style="text;strokeColor=none;fillColor=none;html=1;fontSize=32;fontStyle=1;verticalAlign=middle;align=center;" parent="WIyWlLk6GJQsqaUBKTNV-1" vertex="1">
          <mxGeometry x="1286" y="99" width="341" height="44" as="geometry" />
        </mxCell>
        <mxCell id="Td7zW-o2DTwXKr2sYSDe-5" style="edgeStyle=orthogonalEdgeStyle;rounded=0;orthogonalLoop=1;jettySize=auto;html=1;endArrow=none;endFill=0;" parent="WIyWlLk6GJQsqaUBKTNV-1" edge="1">
          <mxGeometry relative="1" as="geometry">
            <mxPoint x="1408" y="259.66" as="targetPoint" />
            <mxPoint x="1342" y="259.72818181818184" as="sourcePoint" />
            <Array as="points">
              <mxPoint x="1408" y="259.71000000000004" />
            </Array>
          </mxGeometry>
        </mxCell>
        <mxCell id="Td7zW-o2DTwXKr2sYSDe-6" style="edgeStyle=orthogonalEdgeStyle;rounded=0;orthogonalLoop=1;jettySize=auto;html=1;endArrow=none;endFill=0;" parent="WIyWlLk6GJQsqaUBKTNV-1" edge="1">
          <mxGeometry relative="1" as="geometry">
            <mxPoint x="1582.75" y="252.52999999999997" as="sourcePoint" />
            <mxPoint x="1670.75" y="252.52999999999997" as="targetPoint" />
          </mxGeometry>
        </mxCell>
        <mxCell id="Td7zW-o2DTwXKr2sYSDe-7" value="" style="shape=curlyBracket;whiteSpace=wrap;html=1;rounded=1;flipH=1;labelPosition=right;verticalLabelPosition=middle;align=left;verticalAlign=middle;" parent="WIyWlLk6GJQsqaUBKTNV-1" vertex="1">
          <mxGeometry x="1837" y="212.75" width="22" height="87" as="geometry" />
        </mxCell>
        <mxCell id="Td7zW-o2DTwXKr2sYSDe-8" value="&lt;ul style=&quot;font-size: 17px;&quot;&gt;&lt;li style=&quot;font-size: 17px;&quot;&gt;Deployments&lt;/li&gt;&lt;li style=&quot;font-size: 17px;&quot;&gt;&lt;span style=&quot;background-color: initial; font-size: 17px;&quot;&gt;Services&lt;/span&gt;&lt;/li&gt;&lt;li style=&quot;font-size: 17px;&quot;&gt;&lt;span style=&quot;background-color: initial; font-size: 17px;&quot;&gt;ConfigMap&lt;/span&gt;&lt;/li&gt;&lt;li style=&quot;font-size: 17px;&quot;&gt;&lt;span style=&quot;background-color: initial; font-size: 17px;&quot;&gt;Secrets&lt;/span&gt;&lt;/li&gt;&lt;li style=&quot;font-size: 17px;&quot;&gt;&lt;span style=&quot;background-color: initial; font-size: 17px;&quot;&gt;PVCs&lt;/span&gt;&lt;/li&gt;&lt;/ul&gt;" style="text;strokeColor=none;fillColor=none;html=1;whiteSpace=wrap;verticalAlign=middle;overflow=hidden;rounded=0;sketch=1;curveFitting=1;jiggle=2;fontSize=17;" parent="WIyWlLk6GJQsqaUBKTNV-1" vertex="1">
          <mxGeometry x="1859" y="186.88" width="187" height="158" as="geometry" />
        </mxCell>
        <mxCell id="Td7zW-o2DTwXKr2sYSDe-9" value="Frontend Image" style="rounded=1;whiteSpace=wrap;html=1;sketch=1;curveFitting=1;jiggle=2;fillColor=#fa6800;strokeColor=#C73500;fontColor=#000000;" parent="WIyWlLk6GJQsqaUBKTNV-1" vertex="1">
          <mxGeometry x="968" y="429" width="153" height="71" as="geometry" />
        </mxCell>
        <mxCell id="Td7zW-o2DTwXKr2sYSDe-90" style="edgeStyle=orthogonalEdgeStyle;rounded=0;orthogonalLoop=1;jettySize=auto;html=1;exitX=0.5;exitY=1;exitDx=0;exitDy=0;" parent="WIyWlLk6GJQsqaUBKTNV-1" source="_PzZQzh7Twu5nZZNjSZp-4" edge="1">
          <mxGeometry relative="1" as="geometry">
            <mxPoint x="1738" y="594" as="targetPoint" />
            <Array as="points">
              <mxPoint x="1254" y="594" />
            </Array>
            <mxPoint x="1254" y="495" as="sourcePoint" />
          </mxGeometry>
        </mxCell>
        <mxCell id="Td7zW-o2DTwXKr2sYSDe-110" style="edgeStyle=orthogonalEdgeStyle;rounded=0;orthogonalLoop=1;jettySize=auto;html=1;endArrow=classic;endFill=1;jumpSize=0;exitX=0;exitY=0.5;exitDx=0;exitDy=0;startArrow=none;startFill=0;" parent="WIyWlLk6GJQsqaUBKTNV-1" edge="1" source="Td7zW-o2DTwXKr2sYSDe-11">
          <mxGeometry relative="1" as="geometry">
            <mxPoint x="1737" y="420.38" as="targetPoint" />
            <mxPoint x="1846.9999999999995" y="420.33487804878047" as="sourcePoint" />
            <Array as="points">
              <mxPoint x="1737" y="420" />
            </Array>
          </mxGeometry>
        </mxCell>
        <mxCell id="Td7zW-o2DTwXKr2sYSDe-11" value="mysql:latest" style="rounded=1;whiteSpace=wrap;html=1;sketch=1;curveFitting=1;jiggle=2;fillColor=#bac8d3;strokeColor=#23445d;" parent="WIyWlLk6GJQsqaUBKTNV-1" vertex="1">
          <mxGeometry x="1944.21" y="383.5" width="154" height="75" as="geometry" />
        </mxCell>
        <mxCell id="Td7zW-o2DTwXKr2sYSDe-13" value="" style="shape=curlyBracket;whiteSpace=wrap;html=1;rounded=1;flipH=1;labelPosition=right;verticalLabelPosition=middle;align=left;verticalAlign=middle;size=0.5;direction=east;" parent="WIyWlLk6GJQsqaUBKTNV-1" vertex="1">
          <mxGeometry x="2148.29" y="383.5" width="18.71" height="199.5" as="geometry" />
        </mxCell>
        <mxCell id="Td7zW-o2DTwXKr2sYSDe-15" value="gets pulled from Docker Hub&amp;nbsp;" style="text;html=1;align=center;verticalAlign=middle;whiteSpace=wrap;rounded=0;fontSize=20;" parent="WIyWlLk6GJQsqaUBKTNV-1" vertex="1">
          <mxGeometry x="2148.29" y="452.25" width="333.43" height="62" as="geometry" />
        </mxCell>
        <mxCell id="Td7zW-o2DTwXKr2sYSDe-16" style="edgeStyle=orthogonalEdgeStyle;rounded=0;orthogonalLoop=1;jettySize=auto;html=1;exitX=0.498;exitY=0.854;exitDx=0;exitDy=0;exitPerimeter=0;endArrow=none;endFill=0;entryX=0.475;entryY=-0.02;entryDx=0;entryDy=0;entryPerimeter=0;" parent="WIyWlLk6GJQsqaUBKTNV-1" source="Td7zW-o2DTwXKr2sYSDe-0" edge="1" target="Td7zW-o2DTwXKr2sYSDe-9">
          <mxGeometry relative="1" as="geometry">
            <mxPoint x="1045" y="275" as="sourcePoint" />
            <mxPoint x="1045" y="429" as="targetPoint" />
            <Array as="points">
              <mxPoint x="1254" y="308" />
              <mxPoint x="1254" y="363" />
              <mxPoint x="1041" y="363" />
            </Array>
          </mxGeometry>
        </mxCell>
        <mxCell id="Td7zW-o2DTwXKr2sYSDe-20" value="" style="rounded=0;whiteSpace=wrap;html=1;movable=0;resizable=0;rotatable=0;deletable=0;editable=0;locked=1;connectable=0;" parent="WIyWlLk6GJQsqaUBKTNV-1" vertex="1">
          <mxGeometry x="704" y="726" width="1628" height="1815" as="geometry" />
        </mxCell>
        <mxCell id="Td7zW-o2DTwXKr2sYSDe-58" value="&lt;pre&gt;&lt;font style=&quot;font-size: 22px;&quot;&gt;k3d cluster create mycluster --port &quot;8080:8080@loadbalancer&quot; --port &quot;9100:9100@loadbalancer&quot;&amp;nbsp;&lt;/font&gt;&amp;nbsp;&lt;/pre&gt;" style="text;strokeColor=none;fillColor=none;html=1;fontSize=24;fontStyle=1;verticalAlign=middle;align=center;" parent="WIyWlLk6GJQsqaUBKTNV-1" vertex="1">
          <mxGeometry x="799.71" y="847" width="1246.29" height="37" as="geometry" />
        </mxCell>
        <mxCell id="Td7zW-o2DTwXKr2sYSDe-59" value="" style="rounded=0;whiteSpace=wrap;html=1;sketch=1;curveFitting=1;jiggle=2;" parent="WIyWlLk6GJQsqaUBKTNV-1" vertex="1">
          <mxGeometry x="806.29" y="1034" width="253" height="275" as="geometry" />
        </mxCell>
        <mxCell id="Td7zW-o2DTwXKr2sYSDe-60" value="Frontend deployment" style="text;strokeColor=none;fillColor=none;html=1;fontSize=20;fontStyle=1;verticalAlign=middle;align=center;" parent="WIyWlLk6GJQsqaUBKTNV-1" vertex="1">
          <mxGeometry x="795.29" y="1045" width="275" height="55" as="geometry" />
        </mxCell>
        <mxCell id="Td7zW-o2DTwXKr2sYSDe-61" style="edgeStyle=orthogonalEdgeStyle;rounded=0;orthogonalLoop=1;jettySize=auto;html=1;exitX=0.5;exitY=1;exitDx=0;exitDy=0;flowAnimation=0;" parent="WIyWlLk6GJQsqaUBKTNV-1" source="Td7zW-o2DTwXKr2sYSDe-62" target="Td7zW-o2DTwXKr2sYSDe-65" edge="1">
          <mxGeometry relative="1" as="geometry" />
        </mxCell>
        <mxCell id="Td7zW-o2DTwXKr2sYSDe-62" value="" style="rounded=0;whiteSpace=wrap;html=1;dashed=1;glass=0;shadow=1;sketch=1;curveFitting=1;jiggle=2;" parent="WIyWlLk6GJQsqaUBKTNV-1" vertex="1">
          <mxGeometry x="855.8499999999999" y="1127.5" width="153.87" height="104.5" as="geometry" />
        </mxCell>
        <mxCell id="Td7zW-o2DTwXKr2sYSDe-63" value="Frontend pod" style="text;strokeColor=none;fillColor=none;html=1;fontSize=19;fontStyle=1;verticalAlign=middle;align=center;" parent="WIyWlLk6GJQsqaUBKTNV-1" vertex="1">
          <mxGeometry x="872.0400000000001" y="1163.25" width="121.5" height="33" as="geometry" />
        </mxCell>
        <mxCell id="Td7zW-o2DTwXKr2sYSDe-64" style="edgeStyle=orthogonalEdgeStyle;rounded=0;orthogonalLoop=1;jettySize=auto;html=1;exitX=1;exitY=0.5;exitDx=0;exitDy=0;flowAnimation=1;startArrow=classic;startFill=1;" parent="WIyWlLk6GJQsqaUBKTNV-1" source="Td7zW-o2DTwXKr2sYSDe-65" target="Td7zW-o2DTwXKr2sYSDe-72" edge="1">
          <mxGeometry relative="1" as="geometry" />
        </mxCell>
        <mxCell id="Td7zW-o2DTwXKr2sYSDe-65" value="" style="rounded=1;whiteSpace=wrap;html=1;sketch=1;curveFitting=1;jiggle=2;fillColor=#fad7ac;strokeColor=#B46504;" parent="WIyWlLk6GJQsqaUBKTNV-1" vertex="1">
          <mxGeometry x="806.29" y="1419" width="253" height="220" as="geometry" />
        </mxCell>
        <mxCell id="Td7zW-o2DTwXKr2sYSDe-66" value="Frontend service" style="text;strokeColor=none;fillColor=none;html=1;fontSize=20;fontStyle=1;verticalAlign=middle;align=center;" parent="WIyWlLk6GJQsqaUBKTNV-1" vertex="1">
          <mxGeometry x="795.29" y="1472.63" width="275" height="55" as="geometry" />
        </mxCell>
        <mxCell id="Td7zW-o2DTwXKr2sYSDe-67" value="&lt;font style=&quot;font-size: 18px;&quot;&gt;localhost:&lt;/font&gt;&lt;span style=&quot;font-size: 18px; background-color: initial;&quot;&gt;8080&lt;/span&gt;" style="text;html=1;align=left;verticalAlign=middle;whiteSpace=wrap;rounded=0;fontSize=15;" parent="WIyWlLk6GJQsqaUBKTNV-1" vertex="1">
          <mxGeometry x="853.5199999999999" y="1527.63" width="158.54" height="59.13" as="geometry" />
        </mxCell>
        <mxCell id="Td7zW-o2DTwXKr2sYSDe-68" value="" style="rounded=0;whiteSpace=wrap;html=1;sketch=1;curveFitting=1;jiggle=2;" parent="WIyWlLk6GJQsqaUBKTNV-1" vertex="1">
          <mxGeometry x="1169.29" y="1034" width="253" height="275" as="geometry" />
        </mxCell>
        <mxCell id="Td7zW-o2DTwXKr2sYSDe-69" value="Backend deployment" style="text;strokeColor=none;fillColor=none;html=1;fontSize=20;fontStyle=1;verticalAlign=middle;align=center;" parent="WIyWlLk6GJQsqaUBKTNV-1" vertex="1">
          <mxGeometry x="1158.29" y="1045" width="275" height="55" as="geometry" />
        </mxCell>
        <mxCell id="Td7zW-o2DTwXKr2sYSDe-70" value="" style="rounded=0;whiteSpace=wrap;html=1;dashed=1;glass=0;shadow=1;sketch=1;curveFitting=1;jiggle=2;" parent="WIyWlLk6GJQsqaUBKTNV-1" vertex="1">
          <mxGeometry x="1218.85" y="1119.25" width="153.87" height="104.5" as="geometry" />
        </mxCell>
        <mxCell id="Td7zW-o2DTwXKr2sYSDe-71" value="Backend pod" style="text;strokeColor=none;fillColor=none;html=1;fontSize=19;fontStyle=1;verticalAlign=middle;align=center;" parent="WIyWlLk6GJQsqaUBKTNV-1" vertex="1">
          <mxGeometry x="1235.04" y="1155" width="121.5" height="33" as="geometry" />
        </mxCell>
        <mxCell id="Td7zW-o2DTwXKr2sYSDe-72" value="" style="rounded=1;whiteSpace=wrap;html=1;sketch=1;curveFitting=1;jiggle=2;fillColor=#FAD7AC;strokeColor=#B46504;" parent="WIyWlLk6GJQsqaUBKTNV-1" vertex="1">
          <mxGeometry x="1169.29" y="1419" width="253" height="220" as="geometry" />
        </mxCell>
        <mxCell id="Td7zW-o2DTwXKr2sYSDe-73" value="Backend service" style="text;strokeColor=none;fillColor=none;html=1;fontSize=20;fontStyle=1;verticalAlign=middle;align=center;" parent="WIyWlLk6GJQsqaUBKTNV-1" vertex="1">
          <mxGeometry x="1158.1" y="1472.63" width="275" height="55" as="geometry" />
        </mxCell>
        <mxCell id="Td7zW-o2DTwXKr2sYSDe-74" value="localhost:&lt;span style=&quot;background-color: initial;&quot;&gt;9100&lt;/span&gt;" style="text;html=1;align=left;verticalAlign=middle;whiteSpace=wrap;rounded=0;fontSize=18;" parent="WIyWlLk6GJQsqaUBKTNV-1" vertex="1">
          <mxGeometry x="1218.8500000000001" y="1533.13" width="154.25" height="53.63" as="geometry" />
        </mxCell>
        <mxCell id="Td7zW-o2DTwXKr2sYSDe-75" style="edgeStyle=orthogonalEdgeStyle;rounded=0;orthogonalLoop=1;jettySize=auto;html=1;exitX=0.5;exitY=1;exitDx=0;exitDy=0;flowAnimation=0;" parent="WIyWlLk6GJQsqaUBKTNV-1" edge="1">
          <mxGeometry relative="1" as="geometry">
            <mxPoint x="1295.1599999999999" y="1232" as="sourcePoint" />
            <mxPoint x="1295.1599999999999" y="1419" as="targetPoint" />
            <Array as="points">
              <mxPoint x="1295.1599999999999" y="1320" />
              <mxPoint x="1295.1599999999999" y="1320" />
            </Array>
          </mxGeometry>
        </mxCell>
        <mxCell id="Td7zW-o2DTwXKr2sYSDe-76" value="" style="rounded=0;whiteSpace=wrap;html=1;sketch=1;curveFitting=1;jiggle=2;" parent="WIyWlLk6GJQsqaUBKTNV-1" vertex="1">
          <mxGeometry x="1543.29" y="1034" width="253" height="275" as="geometry" />
        </mxCell>
        <mxCell id="Td7zW-o2DTwXKr2sYSDe-77" value="Database deployment" style="text;strokeColor=none;fillColor=none;html=1;fontSize=20;fontStyle=1;verticalAlign=middle;align=center;" parent="WIyWlLk6GJQsqaUBKTNV-1" vertex="1">
          <mxGeometry x="1532.29" y="1045" width="275" height="55" as="geometry" />
        </mxCell>
        <mxCell id="Td7zW-o2DTwXKr2sYSDe-78" value="" style="rounded=0;whiteSpace=wrap;html=1;dashed=1;glass=0;shadow=1;sketch=1;curveFitting=1;jiggle=2;" parent="WIyWlLk6GJQsqaUBKTNV-1" vertex="1">
          <mxGeometry x="1584.58" y="1119.25" width="170.43" height="101.75" as="geometry" />
        </mxCell>
        <mxCell id="Td7zW-o2DTwXKr2sYSDe-79" value="Database pod" style="text;strokeColor=none;fillColor=none;html=1;fontSize=19;fontStyle=1;verticalAlign=middle;align=center;" parent="WIyWlLk6GJQsqaUBKTNV-1" vertex="1">
          <mxGeometry x="1613.29" y="1155" width="121.5" height="33" as="geometry" />
        </mxCell>
        <mxCell id="Td7zW-o2DTwXKr2sYSDe-80" value="" style="shape=cylinder3;whiteSpace=wrap;html=1;boundedLbl=1;backgroundOutline=1;size=15;sketch=1;curveFitting=1;jiggle=2;fillColor=#fad9d5;strokeColor=#ae4132;" parent="WIyWlLk6GJQsqaUBKTNV-1" vertex="1">
          <mxGeometry x="1580.54" y="1703.63" width="292.75" height="319" as="geometry" />
        </mxCell>
        <mxCell id="Td7zW-o2DTwXKr2sYSDe-81" value="Database service" style="text;strokeColor=none;fillColor=none;html=1;fontSize=20;fontStyle=1;verticalAlign=middle;align=center;" parent="WIyWlLk6GJQsqaUBKTNV-1" vertex="1">
          <mxGeometry x="1598.29" y="1769.63" width="275" height="55" as="geometry" />
        </mxCell>
        <mxCell id="Td7zW-o2DTwXKr2sYSDe-83" style="edgeStyle=orthogonalEdgeStyle;rounded=0;orthogonalLoop=1;jettySize=auto;html=1;entryX=0;entryY=0.5;entryDx=0;entryDy=0;entryPerimeter=0;flowAnimation=1;exitX=0.5;exitY=1;exitDx=0;exitDy=0;startArrow=classic;startFill=1;" parent="WIyWlLk6GJQsqaUBKTNV-1" source="Td7zW-o2DTwXKr2sYSDe-72" target="Td7zW-o2DTwXKr2sYSDe-80" edge="1">
          <mxGeometry relative="1" as="geometry" />
        </mxCell>
        <mxCell id="Td7zW-o2DTwXKr2sYSDe-84" value="&lt;font style=&quot;font-size: 35px;&quot;&gt;k3s cluster&lt;/font&gt;" style="text;strokeColor=none;fillColor=none;html=1;fontSize=28;fontStyle=1;verticalAlign=middle;align=center;" parent="WIyWlLk6GJQsqaUBKTNV-1" vertex="1">
          <mxGeometry x="748" y="759.25" width="165" height="66" as="geometry" />
        </mxCell>
        <mxCell id="Td7zW-o2DTwXKr2sYSDe-91" style="edgeStyle=orthogonalEdgeStyle;rounded=0;orthogonalLoop=1;jettySize=auto;html=1;exitX=0.5;exitY=1;exitDx=0;exitDy=0;" parent="WIyWlLk6GJQsqaUBKTNV-1" edge="1">
          <mxGeometry relative="1" as="geometry">
            <mxPoint x="1040.4" y="500" as="sourcePoint" />
            <mxPoint x="1738" y="594" as="targetPoint" />
            <Array as="points">
              <mxPoint x="1040" y="594" />
            </Array>
          </mxGeometry>
        </mxCell>
        <mxCell id="Td7zW-o2DTwXKr2sYSDe-92" value="" style="rounded=0;whiteSpace=wrap;html=1;sketch=1;curveFitting=1;jiggle=2;" parent="WIyWlLk6GJQsqaUBKTNV-1" vertex="1">
          <mxGeometry x="1884.29" y="1034" width="253" height="275" as="geometry" />
        </mxCell>
        <mxCell id="Td7zW-o2DTwXKr2sYSDe-93" value="Adminer deployment" style="text;strokeColor=none;fillColor=none;html=1;fontSize=20;fontStyle=1;verticalAlign=middle;align=center;" parent="WIyWlLk6GJQsqaUBKTNV-1" vertex="1">
          <mxGeometry x="1873.29" y="1045" width="275" height="55" as="geometry" />
        </mxCell>
        <mxCell id="Td7zW-o2DTwXKr2sYSDe-94" value="" style="rounded=0;whiteSpace=wrap;html=1;dashed=1;glass=0;shadow=1;sketch=1;curveFitting=1;jiggle=2;" parent="WIyWlLk6GJQsqaUBKTNV-1" vertex="1">
          <mxGeometry x="1925.57" y="1119.25" width="170.43" height="101.75" as="geometry" />
        </mxCell>
        <mxCell id="Td7zW-o2DTwXKr2sYSDe-95" value="Adminer pod" style="text;strokeColor=none;fillColor=none;html=1;fontSize=19;fontStyle=1;verticalAlign=middle;align=center;" parent="WIyWlLk6GJQsqaUBKTNV-1" vertex="1">
          <mxGeometry x="1950.03" y="1153.63" width="121.5" height="33" as="geometry" />
        </mxCell>
        <mxCell id="Td7zW-o2DTwXKr2sYSDe-96" value="&lt;div style=&quot;font-size: 18px;&quot;&gt;port: 3306&lt;/div&gt;" style="text;html=1;align=left;verticalAlign=middle;whiteSpace=wrap;rounded=0;fontSize=18;" parent="WIyWlLk6GJQsqaUBKTNV-1" vertex="1">
          <mxGeometry x="1656.08" y="1835.63" width="85.21" height="55" as="geometry" />
        </mxCell>
        <mxCell id="Td7zW-o2DTwXKr2sYSDe-97" value="" style="rounded=1;whiteSpace=wrap;html=1;sketch=1;curveFitting=1;jiggle=2;fillColor=#b0e3e6;strokeColor=#0e8088;" parent="WIyWlLk6GJQsqaUBKTNV-1" vertex="1">
          <mxGeometry x="1915.58" y="1463" width="198" height="165" as="geometry" />
        </mxCell>
        <mxCell id="Td7zW-o2DTwXKr2sYSDe-99" value="Adminer service" style="text;strokeColor=none;fillColor=none;html=1;fontSize=20;fontStyle=1;verticalAlign=middle;align=center;" parent="WIyWlLk6GJQsqaUBKTNV-1" vertex="1">
          <mxGeometry x="1920.01" y="1506.66" width="193.57" height="44.69" as="geometry" />
        </mxCell>
        <mxCell id="Td7zW-o2DTwXKr2sYSDe-109" style="edgeStyle=orthogonalEdgeStyle;rounded=0;orthogonalLoop=1;jettySize=auto;html=1;endArrow=classic;endFill=1;" parent="WIyWlLk6GJQsqaUBKTNV-1" edge="1">
          <mxGeometry relative="1" as="geometry">
            <mxPoint x="1738" y="550" as="targetPoint" />
            <Array as="points">
              <mxPoint x="1737" y="550" />
            </Array>
            <mxPoint x="1951.5" y="550.0344827586207" as="sourcePoint" />
          </mxGeometry>
        </mxCell>
        <mxCell id="Td7zW-o2DTwXKr2sYSDe-101" value="adminer:latest" style="rounded=1;whiteSpace=wrap;html=1;sketch=1;curveFitting=1;jiggle=2;fillColor=#bac8d3;strokeColor=#23445d;" parent="WIyWlLk6GJQsqaUBKTNV-1" vertex="1">
          <mxGeometry x="1946.83" y="503.75" width="154" height="77" as="geometry" />
        </mxCell>
        <mxCell id="Td7zW-o2DTwXKr2sYSDe-105" style="edgeStyle=orthogonalEdgeStyle;rounded=0;orthogonalLoop=1;jettySize=auto;html=1;exitX=0.5;exitY=1;exitDx=0;exitDy=0;" parent="WIyWlLk6GJQsqaUBKTNV-1" edge="1">
          <mxGeometry relative="1" as="geometry">
            <mxPoint x="823.92" y="850.5" as="sourcePoint" />
            <mxPoint x="823.92" y="850.5" as="targetPoint" />
          </mxGeometry>
        </mxCell>
        <mxCell id="Td7zW-o2DTwXKr2sYSDe-114" value="&lt;pre style=&quot;font-size: 20px;&quot;&gt;&lt;b&gt;CMD: skaffold dev&lt;/b&gt;&lt;/pre&gt;" style="text;html=1;align=center;verticalAlign=middle;whiteSpace=wrap;rounded=0;fontFamily=Helvetica;fontSize=20;strokeColor=default;fontStyle=0;spacingBottom=0;spacingRight=0;horizontal=1;sketch=1;curveFitting=1;jiggle=2;" parent="WIyWlLk6GJQsqaUBKTNV-1" vertex="1">
          <mxGeometry x="1439.75" y="429" width="210.25" height="29.5" as="geometry" />
        </mxCell>
        <mxCell id="Td7zW-o2DTwXKr2sYSDe-121" style="edgeStyle=orthogonalEdgeStyle;rounded=0;orthogonalLoop=1;jettySize=auto;html=1;exitX=0.541;exitY=0.99;exitDx=0;exitDy=0;flowAnimation=0;entryX=0.5;entryY=0;entryDx=0;entryDy=0;exitPerimeter=0;" parent="WIyWlLk6GJQsqaUBKTNV-1" edge="1">
          <mxGeometry relative="1" as="geometry">
            <mxPoint x="2010.9326299999996" y="1219.9825" as="sourcePoint" />
            <mxPoint x="2010.5200000000002" y="1463" as="targetPoint" />
            <Array as="points">
              <mxPoint x="2010.95" y="1340.63" />
              <mxPoint x="2010.95" y="1340.63" />
            </Array>
          </mxGeometry>
        </mxCell>
        <mxCell id="Td7zW-o2DTwXKr2sYSDe-122" style="edgeStyle=orthogonalEdgeStyle;rounded=0;orthogonalLoop=1;jettySize=auto;html=1;exitX=0.5;exitY=1;exitDx=0;exitDy=0;" parent="WIyWlLk6GJQsqaUBKTNV-1" source="Td7zW-o2DTwXKr2sYSDe-97" target="Td7zW-o2DTwXKr2sYSDe-80" edge="1">
          <mxGeometry relative="1" as="geometry">
            <mxPoint x="1911.79" y="1528.63" as="sourcePoint" />
            <mxPoint x="1875.79" y="1923.63" as="targetPoint" />
            <Array as="points">
              <mxPoint x="2010.79" y="1863.63" />
            </Array>
          </mxGeometry>
        </mxCell>
        <mxCell id="Td7zW-o2DTwXKr2sYSDe-153" value=" kubectl port-forward svc/adminer 8081:8080" style="edgeLabel;align=center;verticalAlign=middle;resizable=0;points=[];" parent="Td7zW-o2DTwXKr2sYSDe-122" vertex="1" connectable="0">
          <mxGeometry x="-0.3947" y="6" relative="1" as="geometry">
            <mxPoint y="1" as="offset" />
          </mxGeometry>
        </mxCell>
        <mxCell id="Td7zW-o2DTwXKr2sYSDe-124" value="&lt;div style=&quot;font-size: 18px;&quot;&gt;localhost:8081&lt;/div&gt;" style="text;html=1;align=left;verticalAlign=middle;whiteSpace=wrap;rounded=0;fontSize=18;" parent="WIyWlLk6GJQsqaUBKTNV-1" vertex="1">
          <mxGeometry x="1958" y="1538.63" width="77" height="55" as="geometry" />
        </mxCell>
        <mxCell id="Td7zW-o2DTwXKr2sYSDe-128" value="" style="rounded=1;whiteSpace=wrap;html=1;" parent="WIyWlLk6GJQsqaUBKTNV-1" vertex="1">
          <mxGeometry x="1831.5800000000002" y="2154.63" width="316.71" height="308" as="geometry" />
        </mxCell>
        <mxCell id="Td7zW-o2DTwXKr2sYSDe-129" value="" style="rounded=1;whiteSpace=wrap;html=1;strokeWidth=2;fillWeight=4;hachureGap=8;hachureAngle=45;fillColor=#FAD7AC;sketch=1;strokeColor=#B46504;" parent="WIyWlLk6GJQsqaUBKTNV-1" vertex="1">
          <mxGeometry x="1873.29" y="2249.63" width="80.43" height="33" as="geometry" />
        </mxCell>
        <mxCell id="Td7zW-o2DTwXKr2sYSDe-130" value="LoadBalancer" style="text;strokeColor=none;fillColor=none;html=1;fontSize=21;fontStyle=1;verticalAlign=middle;align=center;" parent="WIyWlLk6GJQsqaUBKTNV-1" vertex="1">
          <mxGeometry x="1977.79" y="2245.88" width="135.79" height="40.5" as="geometry" />
        </mxCell>
        <mxCell id="Td7zW-o2DTwXKr2sYSDe-131" value="Service type" style="text;strokeColor=none;fillColor=none;html=1;fontSize=24;fontStyle=1;verticalAlign=middle;align=center;" parent="WIyWlLk6GJQsqaUBKTNV-1" vertex="1">
          <mxGeometry x="1873.29" y="2176.63" width="132" height="40" as="geometry" />
        </mxCell>
        <mxCell id="Td7zW-o2DTwXKr2sYSDe-133" value="" style="rounded=1;whiteSpace=wrap;html=1;strokeWidth=2;fillWeight=4;hachureGap=8;hachureAngle=45;fillColor=#fad9d5;sketch=1;strokeColor=#ae4132;" parent="WIyWlLk6GJQsqaUBKTNV-1" vertex="1">
          <mxGeometry x="1873.29" y="2308.63" width="80.43" height="33" as="geometry" />
        </mxCell>
        <mxCell id="Td7zW-o2DTwXKr2sYSDe-134" value="ClusterIP" style="text;strokeColor=none;fillColor=none;html=1;fontSize=21;fontStyle=1;verticalAlign=middle;align=center;" parent="WIyWlLk6GJQsqaUBKTNV-1" vertex="1">
          <mxGeometry x="1953.7199999999998" y="2308.63" width="135.79" height="36.75" as="geometry" />
        </mxCell>
        <mxCell id="Td7zW-o2DTwXKr2sYSDe-136" value="" style="rounded=1;whiteSpace=wrap;html=1;strokeWidth=2;fillWeight=4;hachureGap=8;hachureAngle=45;fillColor=#b0e3e6;sketch=1;strokeColor=#0e8088;" parent="WIyWlLk6GJQsqaUBKTNV-1" vertex="1">
          <mxGeometry x="1873.29" y="2363.63" width="80.43" height="33" as="geometry" />
        </mxCell>
        <mxCell id="Td7zW-o2DTwXKr2sYSDe-137" value="NodePort" style="text;strokeColor=none;fillColor=none;html=1;fontSize=21;fontStyle=1;verticalAlign=middle;align=center;" parent="WIyWlLk6GJQsqaUBKTNV-1" vertex="1">
          <mxGeometry x="1953.7199999999998" y="2363.63" width="135.79" height="40.5" as="geometry" />
        </mxCell>
        <mxCell id="Td7zW-o2DTwXKr2sYSDe-147" value="" style="edgeStyle=orthogonalEdgeStyle;rounded=0;orthogonalLoop=1;jettySize=auto;html=1;flowAnimation=0;" parent="WIyWlLk6GJQsqaUBKTNV-1" target="Td7zW-o2DTwXKr2sYSDe-142" edge="1">
          <mxGeometry relative="1" as="geometry">
            <mxPoint x="1746.79" y="1220.63" as="sourcePoint" />
            <mxPoint x="1614.79" y="1433.63" as="targetPoint" />
            <Array as="points">
              <mxPoint x="1746.79" y="1220.63" />
              <mxPoint x="1746.79" y="1494.63" />
            </Array>
          </mxGeometry>
        </mxCell>
        <mxCell id="Td7zW-o2DTwXKr2sYSDe-142" value="&lt;font style=&quot;font-size: 14px;&quot;&gt;PV of 1GB&lt;/font&gt;" style="shape=cylinder3;whiteSpace=wrap;html=1;boundedLbl=1;backgroundOutline=1;size=15;fillColor=#bac8d3;strokeColor=#23445d;" parent="WIyWlLk6GJQsqaUBKTNV-1" vertex="1">
          <mxGeometry x="1543.29" y="1419" width="142.75" height="143" as="geometry" />
        </mxCell>
        <mxCell id="Td7zW-o2DTwXKr2sYSDe-148" value="" style="edgeStyle=orthogonalEdgeStyle;rounded=0;orthogonalLoop=1;jettySize=auto;html=1;flowAnimation=0;" parent="WIyWlLk6GJQsqaUBKTNV-1" target="Td7zW-o2DTwXKr2sYSDe-80" edge="1">
          <mxGeometry relative="1" as="geometry">
            <mxPoint x="1746.79" y="1220.63" as="sourcePoint" />
            <mxPoint x="1746.79" y="1703.63" as="targetPoint" />
            <Array as="points">
              <mxPoint x="1747" y="1584" />
              <mxPoint x="1747" y="1584" />
            </Array>
          </mxGeometry>
        </mxCell>
        <mxCell id="_PzZQzh7Twu5nZZNjSZp-4" value="Backend Image" style="rounded=1;whiteSpace=wrap;html=1;sketch=1;curveFitting=1;jiggle=2;fillColor=#fa6800;strokeColor=#C73500;fontColor=#000000;" vertex="1" parent="WIyWlLk6GJQsqaUBKTNV-1">
          <mxGeometry x="1177.5" y="432.75" width="153" height="71" as="geometry" />
        </mxCell>
        <mxCell id="_PzZQzh7Twu5nZZNjSZp-7" value="&lt;pre&gt;&lt;font style=&quot;font-size: 22px;&quot;&gt;k3d cluster start mycluster&lt;/font&gt;&amp;nbsp;&lt;/pre&gt;" style="text;strokeColor=none;fillColor=none;html=1;fontSize=24;fontStyle=1;verticalAlign=middle;align=left;" vertex="1" parent="WIyWlLk6GJQsqaUBKTNV-1">
          <mxGeometry x="799.71" y="897" width="789.79" height="33" as="geometry" />
        </mxCell>
        <mxCell id="_PzZQzh7Twu5nZZNjSZp-10" value="&lt;font style=&quot;font-size: 18px;&quot;&gt;&lt;b&gt;CMD:&lt;/b&gt;&lt;/font&gt;" style="text;html=1;align=center;verticalAlign=middle;whiteSpace=wrap;rounded=0;" vertex="1" parent="WIyWlLk6GJQsqaUBKTNV-1">
          <mxGeometry x="741.42" y="850.5" width="47.29" height="30" as="geometry" />
        </mxCell>
        <mxCell id="_PzZQzh7Twu5nZZNjSZp-11" value="&lt;font size=&quot;1&quot; style=&quot;&quot;&gt;&lt;b style=&quot;font-size: 18px;&quot;&gt;CMD:&lt;/b&gt;&lt;/font&gt;" style="text;html=1;align=center;verticalAlign=middle;whiteSpace=wrap;rounded=0;" vertex="1" parent="WIyWlLk6GJQsqaUBKTNV-1">
          <mxGeometry x="739.7099999999999" y="898.5" width="49" height="30" as="geometry" />
        </mxCell>
      </root>
    </mxGraphModel>
  </diagram>
</mxfile>
